<svg xmlns="http://www.w3.org/2000/svg" width="1413" height="1415" viewBox="0 0 1413 1415">
  <metadata><?xpacket begin="﻿" id="W5M0MpCehiHzreSzNTczkc9d"?>
<x:xmpmeta xmlns:x="adobe:ns:meta/" x:xmptk="Adobe XMP Core 5.6-c140 79.160451, 2017/05/06-01:08:21        ">
   <rdf:RDF xmlns:rdf="http://www.w3.org/1999/02/22-rdf-syntax-ns#">
      <rdf:Description rdf:about=""/>
   </rdf:RDF>
</x:xmpmeta>
                                                                                                    
                                                                                                    
                                                                                                    
                                                                                                    
                                                                                                    
                                                                                                    
                                                                                                    
                                                                                                    
                                                                                                    
                                                                                                    
                                                                                                    
                                                                                                    
                                                                                                    
                                                                                                    
                                                                                                    
                                                                                                    
                                                                                                    
                                                                                                    
                                                                                                    
                                                                                                    
                           
<?xpacket end="w"?></metadata>
<defs>
    <style>
      .cls-1, .cls-2, .cls-5 {
        fill: none;
        stroke: #000;
      }

      .cls-1 {
        stroke-width: 18.33px;
      }

      .cls-2 {
        stroke-width: 12.87px;
      }

      .cls-3 {
        font-size: 150px;
        text-anchor: middle;
        font-family: Amethysta;
      }

      .cls-4 {
        fill-rule: evenodd;
      }

      .cls-5 {
        stroke-width: 10.14px;
      }
    </style>
  </defs>
  <rect class="cls-1" x="-4" y="-1" width="1422" height="1418"/>
  <rect class="cls-2" x="121" y="80" width="843" height="238"/>
  <text id="Submit" class="cls-3" x="544.483" y="250.967"><tspan x="544.483">Submit</tspan></text>
  <rect x="241" y="484" width="53" height="719"/>
  <rect x="574" y="484" width="53" height="719"/>
  <rect x="907" y="484" width="53" height="719"/>
  <rect x="241" y="484" width="719" height="53"/>
  <rect x="241" y="1150" width="719" height="53"/>
  <rect x="241" y="817" width="719" height="53"/>
  <circle cx="268" cy="511" r="76"/>
  <path id="Rounded_Rectangle_1" data-name="Rounded Rectangle 1" d="M936.8,1152h58.667A23.529,23.529,0,0,1,1019,1175.529v0A26.471,26.471,0,0,1,992.529,1202H936.8a9.8,9.8,0,0,1-9.8-9.8V1161.8a9.8,9.8,0,0,1,9.8-9.8Z"/>
  <rect id="Rounded_Rectangle_2" data-name="Rounded Rectangle 2" x="364" y="614" width="125" height="125" rx="10" ry="10"/>
  <rect x="749" y="948" width="24" height="78"/>
  <path class="cls-4" d="M760.775,1003.11l12,20.78-67.55,39-12-20.78Z"/>
  <path class="cls-4" d="M750.225,1023.89l12-20.78,67.55,39-12,20.78Z"/>
  <circle class="cls-5" cx="1225" cy="149" r="69"/>
</svg>
